GRF_file
version=1
nRows=10
nColumns=2
inDegrees=no
range 1 10
endheader
time	force
1	-0.267258892582853
2	1.09385249788569
3	0.267236606679667
4	-1.15277435311835
5	-0.113328305502877
6	0.108019548057157
7	1.67568908502036
8	-1.4776013965917
9	-1.04761730112022
10	1.29701987273717
